COSMETIC_dedrift_NOT_METROLOGICALLY_VALID
# WARNING: cosmetic drift-bounding for visualisation only.
# These joint angles are NOT accurate. Do not analyse, report, or publish.
version=1
nRows=26
nColumns=40
inDegrees=yes
endheader
time	pelvis_tilt	pelvis_list	pelvis_rotation	pelvis_tx	pelvis_ty	pelvis_tz	hip_flexion_r	hip_adduction_r	hip_rotation_r	knee_angle_r	knee_angle_r_beta	ankle_angle_r	subtalar_angle_r	mtp_angle_r	hip_flexion_l	hip_adduction_l	hip_rotation_l	knee_angle_l	knee_angle_l_beta	ankle_angle_l	subtalar_angle_l	mtp_angle_l	lumbar_extension	lumbar_bending	lumbar_rotation	arm_flex_r	arm_add_r	arm_rot_r	elbow_flex_r	pro_sup_r	wrist_flex_r	wrist_dev_r	arm_flex_l	arm_add_l	arm_rot_l	elbow_flex_l	pro_sup_l	wrist_flex_l	wrist_dev_l
231.925	1.903375	0.582495	120.000000	0.000000	0.940000	0.000000	22.532359	5.590784	-11.754314	15.000000	1.091906	-50.000000	0.000000	0.000000	7.391986	-0.089225	2.724475	-0.053089	-0.000927	0.619213	0.000000	0.000000	3.978516	-2.907232	7.246143	-5.593048	0.266830	6.637265	0.000000	44.999996	0.000000	0.000000	-3.757881	-0.455433	-0.266776	0.808279	44.999996	0.000000	0.000000
231.95	-0.404293	0.982305	120.000000	0.000000	0.940000	0.000000	7.024768	6.654444	-15.351706	15.000000	0.828369	-41.326249	0.000000	0.000000	4.333617	-0.491385	0.980245	-3.897600	-0.068026	0.868222	0.000000	0.000000	5.669392	-2.654347	6.452766	-4.657199	0.615585	3.199015	0.000000	44.999996	0.000000	0.000000	-3.799665	1.069572	3.078717	0.821506	44.999996	0.000000	0.000000
231.975	-2.091418	1.002287	120.000000	0.000000	0.940000	0.000000	-11.671062	6.902839	-14.862573	15.000000	0.522537	-24.736748	0.000000	0.000000	4.935979	-0.227275	-1.208717	-2.409513	-0.042054	1.069701	0.000000	0.000000	6.081999	-2.230667	5.536239	-2.942601	1.422758	0.022100	0.000000	44.999996	0.000000	0.000000	-3.278160	2.010760	5.614210	0.845572	44.999996	0.000000	0.000000
232	-2.898273	0.754438	120.000000	0.000000	0.940000	0.000000	-24.669221	4.338998	-12.691526	15.000000	0.287705	-10.792387	0.000000	0.000000	4.458963	-0.300939	-3.385192	-1.635474	-0.028544	1.084411	0.000000	0.000000	5.539939	-1.766043	4.220934	-1.808094	1.999271	-3.237073	0.000000	44.999996	0.000000	0.000000	-2.609044	2.759254	10.458082	0.879682	44.999996	0.000000	0.000000
232.025	-2.488066	0.005169	120.000000	0.000000	0.940000	0.000000	-29.427528	1.287754	-9.319235	8.655966	0.151075	-0.800646	0.000000	0.000000	0.744783	-0.184156	-5.411271	-1.035313	-0.018070	1.136223	0.000000	0.000000	4.029034	-1.335080	2.208091	-0.915744	2.179194	-5.439802	0.000000	44.999996	0.000000	0.000000	-1.719149	3.086401	11.883270	0.913424	44.999996	0.000000	0.000000
232.05	-1.859100	0.005169	120.000000	0.000000	0.940000	0.000000	-29.114343	-1.450823	-4.587689	3.603231	0.062888	7.334664	0.000000	0.000000	-2.135351	0.389681	-6.135879	-1.390875	-0.024275	1.354292	0.000000	0.000000	2.720887	-1.142859	0.215833	-0.324804	1.827349	-6.816017	0.000000	44.999996	0.000000	0.000000	-0.773327	3.230293	12.902202	0.930902	44.999996	0.000000	0.000000
232.075	-1.812230	0.005169	120.000000	0.000000	0.940000	0.000000	-27.885758	-5.379915	-0.079358	-2.355994	-0.041120	14.763211	0.000000	0.000000	-4.511515	1.742161	-7.026035	-1.372648	-0.023957	1.739194	0.000000	0.000000	1.839563	-0.328395	-1.747447	0.152470	1.138309	-7.805790	2.039896	44.999996	0.000000	0.000000	0.427694	3.736689	15.918948	0.933410	44.999996	0.000000	0.000000
232.1	-1.648399	0.005169	120.000000	0.000000	0.940000	0.000000	-25.584570	-10.312585	4.912438	-10.155745	-0.177251	20.746397	0.000000	0.000000	-6.658499	3.046631	-7.457965	-0.297607	-0.005194	2.187284	0.000000	0.000000	1.030580	0.520925	-3.963144	0.727169	0.448182	-7.985838	5.575314	44.999996	0.000000	0.000000	1.494079	4.954412	17.659388	0.944941	44.999996	0.000000	0.000000
232.125	-1.234539	-0.585231	120.000000	0.000000	0.940000	0.000000	-18.215895	-11.288856	11.072390	-12.591074	-0.219756	25.014516	0.000000	0.000000	-9.182083	4.791650	-8.788034	1.144264	0.019971	2.526673	0.000000	0.000000	0.267382	0.765388	-5.723020	1.105483	-0.113879	-8.485709	8.885758	44.999996	0.000000	0.000000	2.182139	5.173616	19.407034	1.006717	44.999996	0.000000	0.000000
232.15	-1.097490	-0.768440	120.000000	0.000000	0.940000	0.000000	-8.773861	-7.769219	16.520124	-11.908159	-0.207837	25.213109	0.000000	0.000000	-11.290467	7.363603	-8.990378	2.897484	0.050571	2.129461	0.000000	0.000000	-0.272739	0.334805	-8.163599	1.193305	-0.192095	-8.958587	12.042419	44.999996	0.000000	0.000000	2.355122	4.590180	22.501181	1.171640	44.999996	0.000000	0.000000
232.175	-1.215840	-0.689662	120.000000	0.000000	0.940000	0.000000	-4.113781	-4.521913	18.281698	-14.471207	-0.252570	25.714035	0.000000	0.000000	-13.398552	9.653937	-9.247378	4.683993	0.081751	0.048451	0.000000	0.000000	-0.515389	-0.123319	-10.309641	1.183913	0.065755	-9.517603	15.662243	44.999996	0.000000	0.000000	2.101809	3.888077	24.556815	1.594465	44.999996	0.000000	0.000000
232.2	-1.761362	-0.142774	120.000000	0.000000	0.940000	0.000000	-1.771363	-3.620512	18.350315	-18.202597	-0.317695	23.842052	0.000000	0.000000	-14.726656	12.983013	-9.309849	6.831449	0.119231	-4.817007	0.000000	0.000000	-0.151197	-0.527647	-12.372737	1.007058	0.288805	-9.968531	19.218693	44.999996	0.000000	0.000000	1.347832	3.036394	26.589138	2.286328	44.999996	0.000000	0.000000
232.225	-1.538706	-0.082374	120.000000	0.000000	0.940000	0.000000	1.914630	-1.076866	19.102282	-18.310865	-0.319585	19.148262	0.000000	0.000000	-16.364404	16.948395	-11.480583	8.973267	0.156613	-13.265239	0.000000	0.000000	-0.657100	-0.874276	-13.668967	0.618926	0.566751	-10.020380	22.326598	44.999996	0.000000	0.000000	0.355171	2.755212	28.380606	2.650422	44.999996	0.000000	0.000000
232.25	-0.944897	-0.938687	120.000000	0.000000	0.940000	0.000000	1.881419	-1.628033	18.631925	-18.758959	-0.327406	17.901057	0.000000	0.000000	-18.463670	19.783063	-15.243944	11.110726	0.193919	-20.022034	0.000000	0.000000	-1.663709	-0.333349	-14.249184	-0.052698	0.688992	-10.139406	25.067007	44.999996	0.000000	0.000000	-0.770006	3.614351	29.355278	2.153106	44.999996	0.000000	0.000000
232.275	-0.583032	-1.928773	120.000000	0.000000	0.940000	0.000000	0.687401	-1.998853	17.262729	-16.674809	-0.291030	16.265689	0.000000	0.000000	-19.708600	20.830040	-19.459308	13.713304	0.239342	-23.122065	0.000000	0.000000	-2.391479	0.406527	-13.692991	-0.971417	0.461866	-10.915454	27.503226	44.999996	0.000000	0.000000	-1.720194	4.851694	29.085293	1.235315	44.999996	0.000000	0.000000
232.3	-0.313677	-2.486457	120.000000	0.000000	0.940000	0.000000	0.810541	0.105444	15.728222	-11.819508	-0.206289	12.535054	0.000000	0.000000	-20.357104	20.553313	-20.302140	15.000000	0.293129	-20.503437	0.000000	0.000000	-2.533591	1.313144	-13.412440	-2.770778	-0.428579	-10.498408	29.579059	44.999996	0.000000	0.000000	-2.842205	5.969961	27.163301	0.894100	44.999996	0.000000	0.000000
232.325	0.153985	-2.900265	120.000000	0.000000	0.940000	0.000000	-0.386762	0.297125	13.753314	-9.937409	-0.173440	9.909044	0.000000	0.000000	-20.627342	19.297871	-18.818591	15.000000	0.322135	-16.411645	0.000000	0.000000	-2.622373	1.929951	-12.626747	-4.611645	-1.489488	-9.947593	31.312124	44.999996	0.000000	0.000000	-3.871868	7.197217	23.738680	0.800681	44.999996	0.000000	0.000000
232.35	0.408343	-3.336321	120.000000	0.000000	0.940000	0.000000	0.827567	1.427910	12.628655	-8.253328	-0.144048	6.792197	0.000000	0.000000	-20.184644	16.512861	-17.376059	15.000000	0.342053	-10.799731	0.000000	0.000000	-2.765108	2.782754	-11.739172	-5.854734	-2.601183	-8.069432	31.898246	44.999996	0.000000	0.000000	-4.280451	8.120559	19.449355	0.769098	44.999996	0.000000	0.000000
232.375	0.143193	-3.746570	120.000000	0.000000	0.940000	0.000000	-0.620694	-0.188074	12.509978	-8.818566	-0.153913	8.182609	0.000000	0.000000	-19.521853	12.125086	-15.646155	15.000000	0.331404	-5.255417	0.000000	0.000000	-1.883065	4.351986	-10.995082	-6.567517	-4.563745	-6.130265	32.000446	44.999996	0.000000	0.000000	-4.550590	9.086893	14.323119	0.756152	44.999996	0.000000	0.000000
232.4	-0.771097	-3.444292	120.000000	0.000000	0.940000	0.000000	-2.215639	-1.758535	11.580492	-7.498243	-0.130869	8.242183	0.000000	0.000000	-17.299249	7.800365	-12.126502	15.000000	0.293897	-1.571267	0.000000	0.000000	-0.114979	5.190665	-10.385294	-7.075462	-6.592588	-3.862795	31.102219	44.999996	0.000000	0.000000	-4.530321	9.189177	11.452447	0.751115	44.999996	0.000000	0.000000
232.425	-2.157694	-2.688236	120.000000	0.000000	0.940000	0.000000	-0.214648	-0.782350	11.580461	-5.571080	-0.097234	7.332653	0.000000	0.000000	-12.482538	4.373136	-9.634176	14.857832	0.259318	1.647150	0.000000	0.000000	1.798810	5.396595	-9.290111	-6.506540	-8.068909	-1.627021	29.051424	44.999996	0.000000	0.000000	-4.228774	8.388961	8.612212	0.749668	44.999996	0.000000	0.000000
232.45	-3.212958	-2.105659	120.000000	0.000000	0.940000	0.000000	1.921239	-0.798532	11.277008	-4.037081	-0.070460	6.256202	0.000000	0.000000	-9.551784	0.697573	-6.599556	10.822761	0.188893	4.068000	0.000000	0.000000	2.354123	5.516239	-8.847653	-4.425173	-8.531382	0.567243	25.739915	44.999996	0.000000	0.000000	-3.044121	6.370435	4.388804	0.749542	44.999996	0.000000	0.000000
232.475	-3.428500	-1.777599	120.000000	0.000000	0.940000	0.000000	1.910896	-1.975303	9.905075	-2.859957	-0.049916	4.050625	0.000000	0.000000	-5.969926	-3.023743	-4.264010	6.893041	0.120306	5.332202	0.000000	0.000000	1.878137	4.949697	-7.421111	-2.045845	-7.708300	2.276875	21.117005	44.999996	0.000000	0.000000	-1.527216	4.036969	-0.266776	0.750973	44.999996	0.000000	0.000000
232.5	-2.993960	-1.672331	120.000000	0.000000	0.940000	0.000000	1.963348	-2.265646	8.906547	-1.576743	-0.027519	1.484308	0.000000	0.000000	-2.103802	-6.837642	-1.740539	2.267902	0.039582	5.455355	0.000000	0.000000	0.948444	4.505940	-6.683449	-0.209027	-5.720877	2.500685	15.701070	44.999996	0.000000	0.000000	0.517969	2.051828	-3.463776	0.745136	44.999996	0.000000	0.000000
232.525	-2.161164	-1.861519	120.000000	0.000000	0.940000	0.000000	0.687401	-2.310913	7.633608	-0.303130	-0.005291	0.377463	0.000000	0.000000	0.328658	-10.303467	1.876930	-5.267733	-0.091939	5.325575	0.000000	0.000000	0.006354	3.760875	-5.453327	0.725697	-3.192176	0.456083	9.545949	44.999996	0.000000	0.000000	1.690411	-0.276482	-5.221284	0.762884	44.999996	0.000000	0.000000
232.55	-1.167719	-1.559579	120.000000	0.000000	0.940000	0.000000	-2.193905	-3.062012	5.412901	-1.319991	-0.023038	-0.560026	0.000000	0.000000	2.530169	-13.462732	5.834853	-11.079664	-0.193377	6.356513	0.000000	0.000000	-0.451884	2.692388	-2.837878	1.101182	-1.266834	-1.264750	4.126945	44.999996	0.000000	0.000000	2.235367	-2.931102	-7.197841	0.790179	44.999996	0.000000	0.000000
